<svg xmlns="http://www.w3.org/2000/svg" viewBox="0 0 1423.31 1424.45"><g id="Livello_2" data-name="Livello 2"><g id="Layer_1" data-name="Layer 1"><path d="M594.75,142.07c-.44-3.45-1.44-12.57.53-18.63,0,0,1.6,9.3,3.83,13.77S594.75,142.07,594.75,142.07Z" style="fill:#a7614d"/><path d="M585.86,133.72s9.07-.76,11,6.13l-2.42,4.78S593.29,135.63,585.86,133.72Z" style="fill:#a7614d"/><rect width="1423.31" height="1423.31" style="fill:none"/><path d="M281.16,1200.31c-11.53,114.82,26.58,224.32,77.25,224.14l180.36-.62,16.76-.13,544.54-4.14,179.62-1.37s67.9-278,27.42-557.89c-11.92-82.55-31.73-154.44-57.66-216.26C1172.38,460.21,1101.31,435.27,1043,447.77c-46.53,10-84.93,43.77-111.77,39.68-60.47-9.17-32-287.6-258.75-385.95C636.63,86,596.73,74,556.71,73.85c-111.84-.3-223.33,77.58-238,292.6a798.42,798.42,0,0,0,0,101.78q2.32,39.12,8.21,82.82c7.34,54.14,38.75,158.2,55.37,223.58,53.08,208.73-10.09,259.48-72.85,342.26q-3.87,5.1-7.69,10.46C290.52,1143.06,284.26,1169.49,281.16,1200.31Z" style="fill:#f0f0f0"/><path d="M588.8,326.1s80.83,22.13,120.91.44A53.79,53.79,0,0,0,680.6,303.7c-6.62-2.89-4.64-7.35-5-12.53A271.48,271.48,0,0,0,672.57,262L620.3,234.22,608.58,228a131.82,131.82,0,0,1,3.24,24.33c0,.6.06,1.2.07,1.79C613,299.44,588.8,326.1,588.8,326.1Z" style="fill:#ffb27d"/><path d="M611.4,253.52l.49.6c3.84,4.57,29.7,33.8,63.76,37.05A271.48,271.48,0,0,0,672.57,262L620.3,234.22a130.84,130.84,0,0,0-8.48,18.11Z" style="fill:#e8945b"/><path d="M680.8,280.62s-72.71,2.65-73.66-42.66-11-75.48,35.4-79.09,55.77,13.49,59.77,28.54S699.69,278.76,680.8,280.62Z" style="fill:#ffb27d"/><path d="M621.65,228.19s-8.22-10.77-2-16.08,8.18,4.25,12.52,4.52,13.69-11.34,15.74-22.72,41.14,11.43,58.45,8.13,34.74-23.64,10.32-39c-14.36-9-86-55.06-119.69-22-43,42.11,0,97.56,5.65,105.86s9.68,6.58,9.68,6.58S626,239.24,621.65,228.19Z" style="fill:#a7614d"/><path d="M768.14,621.4,552.51,637.88s-.39-37.18-.85-86.58c-.42-47.27-.91-105.75-1.16-153.52-.21-42.82-.22-77.07.15-86.95,0,0,14-6.18,52.09-8.11,0,0,27.19,33,54.1,23.33s19.23-26.4,19.23-26.4c2.67.07,5.33.14,8,.24q6.26.27,12.31.71c14.39,1.1,27.73,3.13,38.9,6.45C798.75,325.88,768.14,621.4,768.14,621.4Z" style="fill:#38d1a0"/><path d="M597.54,1421.62c-8.41-7.2-4.48-63.27-4.48-63.27s44.44-18.94,50.39,7.6,41.16,38.45,61.2,41.7c13.37,2.17,17.81,9.39,19.3,14Z" style="fill:#2c3a64"/><path d="M817.32,1421.62c-8.41-7.2-3.38-47.54-3.38-47.54s28.3-35,40.25-10.74c12,24.39,50.2,41.06,70.24,44.31,13.36,2.17,17.81,9.39,19.29,14Z" style="fill:#2c3a64"/><path d="M768.7,716.66s32.36,508.71,88.45,650.11c0,0-37.69,23.78-58.42,8,0,0-129.38-266.3-111.33-326.8,12.1-40.55-125.13-327.55-125.13-327.55Z" style="fill:#233862"/><path d="M555.68,686.92a4.57,4.57,0,0,0-5.22,5.11c5.13,39.89,33.06,266.88,11.81,329.18-26.41,77.45,25.82,344,25.82,344s39.26,16.66,65.44.62c0,0,8.1-288.53,19.32-345.87s71.51-304.74,71.51-304.74Z" style="fill:#2b478b"/><path d="M551.66,551.3c-.42-47.27-.91-105.75-1.16-153.52,17.2,5.85,45.79,20.5,52.5,54.48C609.58,485.56,579.57,533.61,551.66,551.3Z" style="fill:#3899a0"/><path d="M918.39,428.55s-8.44-.67-22-1.92c-28.63-2.63-80.06-7.84-123-14.68h0c-34.42-5.48-63.4-12-70.84-19.17-21.11-20.25-11.42-92.53-11.42-92.53s22.21-.27,44.15,6.8C794.45,326.11,917,369.84,931,392.71,949.11,422.22,918.39,428.55,918.39,428.55Z" style="fill:#38d1a0"/><path d="M566,306.78s-37.52,6.78-46.13,24.92-63.87,152-59.92,201c0,0,8.93,16.7,21,25.37,0,0,56.73-9.45,60.77-49,0,0-2.93-5.67.31-10.88s72.29-70.21,72.7-89.73S566,306.78,566,306.78Z" style="fill:#38d1a0"/><path d="M795.91,883.74l-20.41-403c.14-21.19-9-37.68-12.92-54.27-2.47-10.41-9.86-11.72-16.22-11.15-5-12.18-40.24-97.31-50-114.74q-6-.45-12.31-.71c3.68,9.76,32.67,65.4,43,117.12l-14.92.25-85,1.42c-1.8-8.28-24.79-113.18-33.55-115.37l-10.08.92S606.72,363.37,609.68,419h0l-3.75.06a10.64,10.64,0,0,0-10.46,10.41c-.87,45.39-44.21,75.15-44.21,75.15l-.91,186.67c4.56,21.84,9.71,49,15,77.45,8.59,45.92,17.59,95.21,25.22,131,3.85,18.09,37.5,15.58,56,15.58H766.07A29.89,29.89,0,0,0,795.91,883.74Z" style="fill:#0399ff"/><path d="M782.59,583.39s-11.1,11.79-11.5,21.13L757,602.62s16.23-18.9,26.54-21.42Z" style="fill:#543419"/><path d="M565.38,768.71h0c-5.31-28.45-10.46-55.61-15-77.45l.91-186.67s43.34-29.76,44.21-75.15C595.47,429.44,681,711.89,565.38,768.71Z" style="fill:#0373ff"/><path d="M703.72,622c3.76,5.91,17.54,11.32,17.54,11.32h0a30.42,30.42,0,0,0,55.48-12.86l1.56-11.75a30.74,30.74,0,0,0,.26-3.81l-59.88-8a30.56,30.56,0,0,0-.75,3.74l-.77,5.78c-3.88-1.37-9.3-2.79-12.36-1.42C699.65,607.32,700,616.11,703.72,622ZM709,609.35c2.46-.11,5.5,2,7.19,5.09a30.18,30.18,0,0,0,1.08,10.25c-3.24-1.26-9.75-4.27-10.74-8.38C705.25,611.11,706.79,609.45,709,609.35Z" style="fill:#ef1652"/><path d="M773.66,604.25l-8.12-1.08a28.9,28.9,0,0,1-.25,3.81l-1.57,11.75a30.53,30.53,0,0,1-30.11,26.41,26.29,26.29,0,0,0,4,.84,30.55,30.55,0,0,0,34.2-26.17l1.57-11.75A30.74,30.74,0,0,0,773.66,604.25Z" style="fill:#ef4171"/><rect x="730.22" y="643.98" width="24.86" height="3.72" transform="translate(1393.37 1384.22) rotate(-172.4)" style="fill:#ef1652"/><path d="M717.57,616.11c-1.24,6.8-5,19.18-14.24,19.8s-67.84-14.24-67.84-14.24c-62.1-8.44-116-41.92-147.14-65.31,15.53-4.14,50.2-16.73,53.33-47.33,16.09,16.09,107.91,80.5,107.91,80.5,5.11-.92,30.52-5.22,43.83-1.89C708.28,591.35,718.8,609.3,717.57,616.11Z" style="fill:#ffb27d"/><path d="M867.32,538.44l2.48,4a2.44,2.44,0,0,1-.77,3.35l-50.19,31.31a2.43,2.43,0,0,1-3.35-.78l-2.48-4a2.44,2.44,0,0,1,.77-3.35L864,537.67A2.45,2.45,0,0,1,867.32,538.44Z" style="fill:#ef547f"/><path d="M867.32,539.22l2.48,4a2.45,2.45,0,0,1-.77,3.36l-26,16.2a2.43,2.43,0,0,1-3.35-.78l-2.48-4a2.44,2.44,0,0,1,.78-3.35l26-16.2A2.43,2.43,0,0,1,867.32,539.22Z" style="fill:#ef1652"/><path d="M846.13,594.66l1.14,5a2.72,2.72,0,0,1-1.21,2.92l-34.64,21.61a2.29,2.29,0,0,1-2.63-.15l-4.48-3.58a2.49,2.49,0,0,1-.66-.82l-15.52-33.2-4.44-2.31a2.11,2.11,0,0,1-.11-3.68l14.31-8.58,20.3-12.19a2,2,0,0,1,2.94,1.08l1.44,4.2,22.87,28.3A3.42,3.42,0,0,1,846.13,594.66Z" style="fill:#ef547f"/><path d="M846.13,595.43l1.14,5a2.72,2.72,0,0,1-1.21,2.92l-19.55,12.2a2.29,2.29,0,0,1-2.63-.15l-4.48-3.58a2.39,2.39,0,0,1-.66-.82l-15.52-33.2-4.44-2.31a2.09,2.09,0,0,1-.89-2.85l20.3-12.18a2,2,0,0,1,2.94,1.07l1.44,4.2L845.44,594A3.42,3.42,0,0,1,846.13,595.43Z" style="fill:#ef1652"/><path d="M896.39,426.63c-28.63-2.63-80.06-7.84-123-14.68.63-.35,19.95-11,41.58-7.69,22,3.33,64.8,6.23,77.27-.62C899.33,399.71,901.29,413.66,896.39,426.63Z" style="fill:#38a3a0"/><path d="M943.31,428.55c0-37.37-28.09-47.45-28.09-47.45s-11.3-5.92-26.05,12.52c-16.88,21.1-34.36,118-34.36,118s-16.95,15.32-15.26,29.5,6.85,36.59,15.26,33.56,18.56-15.79,21.5-24.84c2.47-7.55,1.61-21.33,1.26-25.67C880.51,520.36,943.31,438.77,943.31,428.55Z" style="fill:#ffb27d"/></g></g></svg>