<svg xmlns="http://www.w3.org/2000/svg" xmlns:xlink="http://www.w3.org/1999/xlink" viewBox="0 0 1599.26 1806.81"><defs><linearGradient id="Sfumatura_senza_nome_3" x1="266.06" y1="583.57" x2="1599.26" y2="583.57" gradientUnits="userSpaceOnUse"><stop offset="0" stop-color="#0399ff"/><stop offset="1" stop-color="#38d1a0"/></linearGradient></defs><g id="Livello_2" data-name="Livello 2"><g id="Layer_1" data-name="Layer 1"><path d="M733.55,1303.11A49.51,49.51,0,0,0,646.89,1324c9.29,5.77,23.12,7.77,34,7.24s21.61-3.26,32.2-6c5.83-1.5,11.85-3.07,16.61-6.75S737.37,1307.77,733.55,1303.11Z" style="fill:#ffde9c"/><path d="M85.8,1806.81a28.55,28.55,0,0,1-8.81-1.39c-11.31-3.66-21.78-15.14-18.06-31.68l93.54-416.3,8,1.8L66.92,1775.53c-2.6,11.6,4.45,19.46,12.6,22.1s18.47.42,23.16-10.5l185.08-430.41,7.53,3.24L110.21,1790.37C105.15,1802.13,95.22,1806.81,85.8,1806.81Z" style="fill:#e0e0e0"/><path d="M1151.31,1806.81c-9.42,0-19.35-4.67-24.41-16.44L941.82,1360l7.53-3.24,185.08,430.41c4.7,10.92,15,13.14,23.16,10.5s15.2-10.5,12.6-22.1l-93.55-416.29,8-1.8,93.54,416.3c3.72,16.54-6.75,28-18.06,31.68A28.55,28.55,0,0,1,1151.31,1806.81Z" style="fill:#e0e0e0"/><path d="M1037.38,1331c-76,12.28-154.83,25.65-218.28,69.27-55,37.83-93.49,95.22-124.89,154.15s-86.14,131.24-95.4,202.86c14.3,7.17,29.39,2.07,43.69,0,66.19-89.58,140.87-170.2,226.13-241.87-3.06-25.29,11.15-39.09,31.27-54.72s44.57-24.35,68-34.44,46.94-22.49,62.12-42.94S1053.09,1351,1037.38,1331Z" style="fill:#1669aa"/><path d="M1202.64,1121.78c4.68-5.42,10.16-10.91,17.23-12.07,10.27-1.69,20,6.85,23.36,16.7s2,20.6.72,30.93a1631.82,1631.82,0,0,0-11.66,262.48c1,29,2,60.79-16,83.54-12.09,15.29-31.15,23.79-50.38,27s-38.89,1.6-58.31,0l-107.52-8.83c-14.7-1.2-31.66-3.76-39.15-16.47-6.61-11.23-2.47-26.22,6-36.13s20.36-16.07,31.61-22.66c57.56-33.7,103.74-85.6,132.53-145.61C1160.38,1239.57,1156.83,1174.91,1202.64,1121.78Z" style="fill:#454545"/><path d="M1037.86,1069.88c-42.12,41-123.87,142-136.42,199.41-57.54,7.43-117,16.41-173.67,28.84a33.05,33.05,0,0,0-3.17,20.64H960.31c25-27.55,45.86-60,55.68-95.85S1065.77,1094.42,1037.86,1069.88Z" style="fill:#2ca37d"/><path d="M990,1430.57c-14.06-62.28-28.2-125.47-25.26-189.25s25.14-129.33,73.14-171.44c43.35-4.47,91.11,24.93,114.9,61.45s32.67,80.59,38.77,123.74c11.32,80.13,14.07,164.8-18.53,238.88C1103.33,1495.5,1042.24,1476.68,990,1430.57Z" style="fill:#38d1a0"/><path d="M1174.69,1481.09a440.8,440.8,0,0,1-214.25,25.2c-10.68,84-28.22,169-49.61,251h-43.7c-10.86-72.76-22.46-149.77-33.32-222.53-5.72-38.3-10-81.91,14.92-111.52,17.27-20.49,44.65-29,70.71-35.27a868.62,868.62,0,0,1,165.74-23.38C1124.18,1395.6,1157.7,1434.23,1174.69,1481.09Z" style="fill:#0399ff"/><path d="M978.1,1375.91s125.21,129,160.9,117.09,34,1,34,1l6-59-4.26-59-50.77-17.57-16-39.56-81.47,38.66Z" style="fill:#38d1a0"/><path d="M878.09,1301.87a41.62,41.62,0,0,0-70.66,24.89c8.59,5.72,19.7,5.93,30,5.55s20.42-3.27,30-7.16c3.91-1.6,7.88-3.45,10.7-6.6S881.1,1304.85,878.09,1301.87Z" style="fill:#ffde9c"/><path d="M1133.48,1117.22a304.46,304.46,0,0,0-84.41,152.07c-57.54,7.43-117,16.41-173.67,28.84a33.12,33.12,0,0,0-3.17,20.64h235.71c25-27.55,45.86-60,55.68-95.85S1161.4,1141.76,1133.48,1117.22Z" style="fill:#38d1a0"/><path d="M1020.79,1046.9l9,57A51.31,51.31,0,0,0,1075,1075c-1.34-15-6.61-27.93-12.82-40.72A86.61,86.61,0,0,0,1020.79,1046.9Z" style="fill:#ffcd69"/><path d="M998.55,1084.22A176.43,176.43,0,0,1,978.13,961.3c4.58-22.54,42.31-21.41,64-13.79s37.88,28.3,41.32,51-5.45,46.69-22,62.66S1021.51,1085.49,998.55,1084.22Z" style="fill:#ffde9c"/><path d="M1065.16,994.81a87.56,87.56,0,0,1-3.38,46.27c-2,5.47-4.51,11-4.16,16.8s.91,8.27,6.72,7.95c7.59-.43,15.29-.88,22.47-3.37s13.89-7.34,16.87-14.34,1.89-14.85,2-22.41c.16-10.93,2.91-21.64,4.69-32.43s2.54-22.13-1.13-32.43-14.13-21.4-25-22.15a44.77,44.77,0,0,0-55.94-44.37c-12.92,3.34-24.4,12.42-37.74,12.59-14.81.19-27.14-10.5-39.54-18.62-18.84-12.34-41.34-19.74-63.83-18.42s-44.77,11.93-58.08,30.1-16.51,43.92-6,63.82,35.33,31.83,57,25.62c12.49-3.57,22.77-12.22,34.07-18.63s25.53-10.56,37-4.55c8.53,4.44,13.54,13.39,20.12,20.39s17.46,12.32,25.57,7.15c8.88-5.66,22.52-5.55,32.61-2.54s18.49,13.18,16.7,23.55c.06-4.63.07-10.26,1.66-14.61s5-8.31,9.55-9.26S1064.25,990.27,1065.16,994.81Z" style="fill:#0399ff"/><polygon points="548.8 1319.08 444.16 1319.08 513.92 1188.24 618.55 1188.24 548.8 1319.08" style="fill:#969696"/><path d="M767.31,1253.66H383.67a28.32,28.32,0,0,1-27.25-20.61L278.7,958.18a28.32,28.32,0,0,1,27.25-36H689.58a28.32,28.32,0,0,1,27.25,20.61l77.72,274.87A28.31,28.31,0,0,1,767.31,1253.66Z" style="fill:#c9c9c9"/><path d="M27.63,1806.81a28.6,28.6,0,0,1-8.81-1.39c-11.3-3.66-21.77-15.14-18.06-31.68l93.55-416.3,8,1.8L8.76,1775.53c-2.61,11.6,4.44,19.46,12.59,22.1s18.47.42,23.17-10.5L229.6,1356.72l7.53,3.24L52,1790.37C47,1802.13,37.06,1806.81,27.63,1806.81Z" style="fill:#636363"/><path d="M1093.15,1806.81c-9.43,0-19.35-4.67-24.41-16.44L883.65,1360l7.53-3.24,185.09,430.41c4.69,10.92,15,13.14,23.16,10.5s15.2-10.5,12.59-22.1l-93.54-416.29,8-1.8,93.55,416.3c3.71,16.54-6.76,28-18.06,31.68A28.6,28.6,0,0,1,1093.15,1806.81Z" style="fill:#636363"/><rect x="1209.77" y="1522.14" width="8.19" height="288.78" transform="translate(-484.34 497.39) rotate(-19.39)" style="fill:#454545"/><rect x="1156.57" y="1525.46" width="8.19" height="282.15" transform="translate(-394.02 359.85) rotate(-15.1)" style="fill:#454545"/><rect x="801.22" y="1658.02" width="297.12" height="8.19" transform="translate(-929.9 2024.79) rotate(-71.18)" style="fill:#454545"/><rect x="857.64" y="1658.02" width="290.68" height="8.19" transform="translate(-858.71 2212.31) rotate(-75.36)" style="fill:#454545"/><path d="M1021.12,984.52a67.91,67.91,0,0,1,22.19,56.47c2.19-1,5-2.72,7.15-3.68A128.12,128.12,0,0,1,1047,1012c-.46-8.62.88-17.56,5.3-25a21.68,21.68,0,0,0-15.21-7.79A21,21,0,0,0,1021.12,984.52Z" style="fill:#0095e1"/><polygon points="867.13 1757.25 773.79 1802.74 928.03 1802.74 910.83 1757.25 867.13 1757.25" style="fill:#ff9a31"/><polygon points="598.81 1757.25 505.47 1802.74 659.71 1802.74 642.5 1757.25 598.81 1757.25" style="fill:#ff9a31"/><rect x="32.78" y="1316.22" width="1091.14" height="42.12" style="fill:#c9c9c9"/><polygon points="754.73 1167.13 692.41 946.74 301.01 946.74 363.33 1167.13 754.73 1167.13" style="fill:#7c00f0"/><path d="M1314.4,24.43s-6-1.06-12.94-2.21C1200,5.36,693.81-67.42,503.87,192.25c-21.51,29.4-103,137.28-65.5,219.5,16.43,36,44.86,65.88,59,102.87,16.24,42.53,11.18,92.62-13.24,131-24.89,39.18-66.4,64.06-105.69,88.79s-79.6,52.73-99.39,94.72-20.2,98.16,22,117.56l62.32,220.39h391.4L692.41,946.74H691c38-25.37,90.94-38,121.4-73.54,40.46-47.25,30-120.25,59.35-175.07,24.66-46,75-73.5,126-84.6,77.86-16.93,158.51-1.43,237.68,7.55,104.8,11.88,168,5.44,232.46-31.34,19.89-11.34,73.93-45.71,106.54-113.31,41.78-86.63,20.1-169.24,11.89-200.55-3.71-14.14-22.19-80.65-79.89-143.45C1494.8,119.8,1424.76,45.59,1314.4,24.43Z" style="fill:url(#Sfumatura_senza_nome_3)"/><circle cx="578.35" cy="1210.43" r="20.46" style="fill:#969696"/><rect x="1342.07" y="298.68" width="40.89" height="140.78" transform="translate(2764.59 205.29) rotate(158.18)" style="fill:#e0e0e0"/><rect x="1277.14" y="270.88" width="40.89" height="140.78" transform="translate(1463.04 1672.74) rotate(-111.82)" style="fill:#e0e0e0"/><rect x="1221.99" y="314.58" width="57.64" height="198.41" transform="translate(-64.19 494.53) rotate(-21.82)" style="fill:#fff"/><rect x="1313.49" y="353.77" width="57.64" height="198.41" transform="translate(1263.94 -961.54) rotate(68.18)" style="fill:#fff"/><path d="M539.15,341.26c.91,21.61,7.78,43.58,22.51,59.43s38,24.47,58.82,18.47c28.82-8.32,43.94-39.59,68.33-57.05,27.77-19.87,67.72-21.89,89.05-48.54,16-20.05,16.11-50.26,3-72.34s-37.5-36.12-62.87-40.09C634.09,188,535.34,250.38,539.15,341.26Z" style="fill:#ffe889"/><circle cx="577.52" cy="329.21" r="19.02" style="fill:#ff5c18"/><circle cx="619.68" cy="282.18" r="23.14" style="fill:#93d700"/><circle cx="707.02" cy="250.75" r="31.44" transform="translate(29.78 573.38) rotate(-45)" style="fill:#ff3ace"/><path d="M563.48,834.26l-44.58,9.47,23.35-39.14L691.17,698.06a13.9,13.9,0,0,1,19.4,3.22l5,7.06a13.9,13.9,0,0,1-3.22,19.39Z" style="fill:#ffc53f"/><polygon points="562.72 834.42 541.86 805.25 518.9 843.73 562.72 834.42" style="fill:#fff5de"/><path d="M518.9,843.73l14.46-3.08a16.69,16.69,0,0,0-2.56-5.44,17.16,17.16,0,0,0-4.32-4.19Z" style="fill:#634c19"/><path d="M962.87,497.37c7.16,2.54,15.31-.47,21-5.49s9.51-11.77,13.52-18.21,8.55-12.9,15.09-16.76a50.16,50.16,0,0,0-36.27-4.5A49.39,49.39,0,0,0,947,473.91C947.46,482.28,955,494.56,962.87,497.37Z" style="fill:#262322"/><path d="M949.43,470.8l13.16,26.52-188,88.78a10.75,10.75,0,0,1-14.22-4.94h0A10.75,10.75,0,0,1,765,566.85Z" style="fill:#5defff"/><polygon points="962.59 497.32 949.43 470.8 889.73 501.89 901.72 526.06 962.59 497.32" style="fill:#b0b0b0"/><path d="M765,566.85a10.75,10.75,0,0,0-4.67,14.31h0a10.75,10.75,0,0,0,5.94,5.32,10.74,10.74,0,0,1,5.31-6.37L956,484.06l-6.58-13.26Z" style="opacity:0.1"/><path d="M395.67,880.73,401,886a83.17,83.17,0,0,0-7.86,108.49l-6,4.48a90.66,90.66,0,0,1,8.56-118.26Z" style="fill:#fff"/><path d="M410,1011.44a83.17,83.17,0,0,0,108.49-7.86l5.29,5.28a90.64,90.64,0,0,1-118.26,8.57Z" style="fill:#fff"/><path d="M518.52,985.71a16.37,16.37,0,1,1,0,23.15A16.4,16.4,0,0,1,518.52,985.71Zm17.87,17.87a8.9,8.9,0,1,0-12.58,0A8.9,8.9,0,0,0,536.39,1003.58Z" style="fill:#fff"/><path d="M395.67,862.86a16.38,16.38,0,1,1,0,23.16A16.4,16.4,0,0,1,395.67,862.86Zm17.87,17.87a8.9,8.9,0,1,0-12.58,0A8.9,8.9,0,0,0,413.54,880.73Z" style="fill:#fff"/><path d="M386.74,994.64a16.38,16.38,0,1,1,0,23.16A16.4,16.4,0,0,1,386.74,994.64Zm17.87,17.87a8.9,8.9,0,1,0-12.58,0A8.9,8.9,0,0,0,404.61,1012.51Z" style="fill:#fff"/><path d="M1127.83,163.47l.06-.13c.93-1.86,2.17-4.15,3.81-7,1.32-2.31,3-5.1,5.11-8.53a4.88,4.88,0,0,0-6.28-7c-3.52,1.7-6.63,3.25-9.67,4.76a67.27,67.27,0,0,1-7.66,3.23l-.2.08-48.93,19.85a4.88,4.88,0,0,0-1.42,8.17l34.57,30.87a4.88,4.88,0,0,0,7.56-1.34ZM1075,174.84,1116.58,158c1.36-.49,2.62-1,3.84-1.48-.45.86-.87,1.66-1.24,2.41l-20.08,37.43Z" style="fill:#fff"/><path d="M1111.73,268.22c-.17-.35-.58-1.26-1.09-2.42-.66-1.48-1.6-3.58-2.81-6.24l60.23-119.91a4.9,4.9,0,0,0-1.11-5.84l-21.78-19.45a4.91,4.91,0,0,0-5-.92l-136.75,52.43-6.12-2.22c-2.11-.76-3.77-1.36-4.31-1.59l-.38-.14c-4.94-1.66-9-1-12.14,1.88L972.38,171a4.88,4.88,0,0,0,0,7.3l38.51,34.39a4.9,4.9,0,0,0,6.43.08l8.29-7.07a1.54,1.54,0,0,0,.19-.17c2.29-2.16,4.49-5.87,2.35-11.4l16.16-6.64,40.31,36-7.31,13.74L1077,237l-.38-.14c-4.94-1.66-9-1-12.14,1.88l-8.09,7.16a4.89,4.89,0,0,0,0,7.3l38.51,34.39a4.87,4.87,0,0,0,6.42.07l8.3-7.06.19-.17C1113.28,277.12,1114,272.66,1111.73,268.22Zm-8.63,5.08-4.93,4.2-31.23-27.89,4-3.56.12-.11c.36-.34,1.45-.07,2.18.16l.07,0a39.52,39.52,0,0,0,4.67,1.76,4.87,4.87,0,0,0,5.62-2.11l1.24-2,.15-.26,10-18.85a4.88,4.88,0,0,0-1.06-5.94l-45.46-40.59a4.9,4.9,0,0,0-5.11-.87l-22.38,9.2-1.29.51a4.89,4.89,0,0,0-2.74,6.35,34.46,34.46,0,0,0,1.77,3.77l.16.31h0a4.32,4.32,0,0,1,.29.85l-.08.09-4.92,4.19L983,174.63l4-3.56a.69.69,0,0,0,.13-.11c.36-.34,1.48-.06,2.22.17s2.25.86,4.64,1.72c2,.74,4.58,1.65,7.77,2.83a4.91,4.91,0,0,0,3.44,0l135.69-52,16.76,15L1098,257.27a4.85,4.85,0,0,0-.07,4.24c1.68,3.65,2.92,6.43,3.74,8.27.64,1.43,1,2.3,1.28,2.82l0,.06a2.87,2.87,0,0,1,.21.5Z" style="fill:#fff"/><circle cx="718.21" cy="837.38" r="12.34" transform="translate(-223.39 1412.18) rotate(-80.78)" style="fill:#fff"/><circle cx="1265.66" cy="179.57" r="12.34" transform="translate(800.1 1370.12) rotate(-76.72)" style="fill:#fff"/><circle cx="807.43" cy="452.97" r="12.34" transform="translate(-83.81 703.61) rotate(-45)" style="fill:#fff"/><circle cx="444.16" cy="798.4" r="12.34" transform="translate(-415.07 1108.93) rotate(-80.78)" style="fill:#fff"/><path d="M618.56,559.94h0a41,41,0,0,0,26.53,26.54h0A41,41,0,0,0,618.56,613h0A41,41,0,0,0,592,586.48h0a41,41,0,0,0,26.54-26.54Z" style="fill:#fff"/><path d="M1133.2,499.53h0a41,41,0,0,0,26.53,26.53h0a41,41,0,0,0-26.53,26.54h0a41,41,0,0,0-26.54-26.54h0a41,41,0,0,0,26.54-26.53Z" style="fill:#fff"/><path d="M1444.57,190.09h0a41,41,0,0,0,26.53,26.54h0a41,41,0,0,0-26.53,26.53h0A41,41,0,0,0,1418,216.63h0a41,41,0,0,0,26.54-26.54Z" style="fill:#fff"/><path d="M883.65,251h0a41,41,0,0,0,26.54,26.54h0A41,41,0,0,0,883.65,304h0a41,41,0,0,0-26.53-26.53h0A41,41,0,0,0,883.65,251Z" style="fill:#fff"/></g></g></svg>