<?xml version="1.0" encoding="UTF-8"?>
<svg xmlns="http://www.w3.org/2000/svg" xmlns:xlink="http://www.w3.org/1999/xlink" width="6pt" height="6pt" viewBox="0 0 6 6" version="1.1">
<g id="surface1">
<path style=" stroke:none;fill-rule:nonzero;fill:rgb(0%,0%,0%);fill-opacity:1;" d="M 3 0 C 1.34375 0 0 1.34375 0 3 C 0 4.324219 0.859375 5.449219 2.050781 5.847656 C 2.203125 5.875 2.25 5.78125 2.25 5.703125 L 2.25 5.144531 C 1.414062 5.324219 1.242188 4.789062 1.242188 4.789062 C 1.105469 4.441406 0.910156 4.351562 0.910156 4.351562 C 0.636719 4.164062 0.929688 4.167969 0.929688 4.167969 C 1.230469 4.191406 1.390625 4.476562 1.390625 4.476562 C 1.65625 4.9375 2.089844 4.804688 2.261719 4.726562 C 2.289062 4.535156 2.367188 4.402344 2.453125 4.328125 C 1.785156 4.25 1.085938 3.992188 1.085938 2.84375 C 1.085938 2.515625 1.203125 2.25 1.394531 2.039062 C 1.363281 1.960938 1.261719 1.65625 1.425781 1.246094 C 1.425781 1.246094 1.675781 1.164062 2.25 1.550781 C 2.488281 1.484375 2.746094 1.453125 3 1.449219 C 3.253906 1.453125 3.511719 1.484375 3.75 1.550781 C 4.324219 1.164062 4.574219 1.246094 4.574219 1.246094 C 4.738281 1.65625 4.636719 1.960938 4.605469 2.039062 C 4.796875 2.25 4.914062 2.515625 4.914062 2.84375 C 4.914062 3.996094 4.210938 4.25 3.542969 4.324219 C 3.652344 4.417969 3.75 4.597656 3.75 4.878906 L 3.75 5.703125 C 3.75 5.78125 3.796875 5.875 3.949219 5.847656 C 5.140625 5.449219 6 4.324219 6 3 C 6 1.34375 4.65625 0 3 0 Z M 3 0 "/>
</g>
</svg>
