<svg xmlns="http://www.w3.org/2000/svg" viewBox="0 0 789.11 1152.48"><g id="Livello_2" data-name="Livello 2"><g id="Layer_2" data-name="Layer 2"><path d="M62.48,571.71c-9.87-3.55-20.27-11.84-18.54-22.18,1.62-9.68,13-14.46,22.85-14.49C78,535,88.9,538.79,100,540.2s23.79-.16,31.17-8.64,4.7-24.94-6.31-27.15c-9.66-1.94-19.34,7.41-28.73,4.42-9.58-3.05-10.8-17.38-4.5-25.2s16.77-10.69,26.52-13.12l37.47-9.35c5.92-1.48,12.08-3,18.08-1.82s11.82,5.7,12.34,11.79c1.09,12.9-19.47,18-21.37,30.83-1.4,9.47,9.41,17.24,18.93,16.12s17.21-8.17,23.32-15.55c8.62-10.4,15.72-22.61,17.26-36s-3.42-28.14-14.68-35.61c-13.19-8.77-30.77-5.78-45.92-1.13s-31,10.7-46.39,7c-8-1.93-16.27-8-16.22-16.29,0-6,4.53-11.2,9.88-13.85s11.45-3.24,17.4-3.73q26.15-2.13,52.4-2.85c12.68-.35,26.17-.69,36.71-7.74s15.73-23.58,6.79-32.58c-3.6-3.62-8.77-5.39-12.29-9.08-6.63-7-5-19.2,1.84-25.93s17.39-8.54,26.88-7,18.23,5.94,26.79,10.29c6.76,3.44,14.68,9.24,12.8,16.58-2.23,8.75-15.77,9-20.37,16.74-4,6.73.64,15.09,5,21.59s8.57,15.26,4,21.6-15,5.3-21.09,10.49c-5.58,4.78-5.71,13.65-2.77,20.38s8.25,12.09,12.58,18c18.05,24.67,17.76,61.19-.66,85.58-21.64,28.63-54.14,29.6-86.35,25-16.59-2.39-30,3.45-45.89,7.62C104.33,576.88,82.62,579,62.48,571.71Z" style="fill:#0399ff"/><path d="M192.23,859.14c7.35,11.23-1.51,27.08-13.71,32.68s-26.24,4.42-39.65,5c-7.07.3-15.33,1.91-18.38,8.3-4.17,8.71,5.54,18.53,15.15,19.51s18.93-3.21,28.49-4.53,21.43,1.89,24,11.2c2.18,7.86-3.87,16.11-11.39,19.29s-16,2.57-24.15,1.92l-54.22-4.38c-10-.81-20.69-1.49-29.47,3.41s-13.84,17.64-7.33,25.29c4.92,5.77,13.65,6.05,21.19,5.24S98.5,979.94,105,983.8s8.13,15.56,1,18.17c-4.32,1.58-9.63-.93-13.51,1.52-4.08,2.58-3.47,9.19-.06,12.59s8.46,4.45,13.2,5.34l37.68,7.06c7,1.32,14.23,2.64,21.31,1.58s14.15-5,17.05-11.53.08-15.61-6.73-17.82c-5.05-1.64-10.46.62-15.76.91s-11.9-3.46-10.61-8.61c1-4.13,6.15-5.42,10.37-6l64.5-8.27c8.12-1,16.76-2,24.16,1.5s12.37,13.35,7.85,20.17c-5.11,7.72-18.54,7.14-22.19,15.65-2.57,6,1.95,13.16,7.94,15.77s12.85,1.93,19.33,1.11c13.81-1.75,27.78-3.92,40.43-9.73s24-15.78,28.46-29,.64-29.55-11-37.19c-24.17-15.86-60.63,12.74-84-4.29-6.32-4.6-10.14-14.37-4.93-20.2,5.41-6,15.08-3.21,23.15-2.4,16.51,1.65,34.05-9.74,37.1-26.06s-11.4-34.22-27.94-32.73" style="fill:#0399ff"/><path d="M536.71,441.92C557.2,470,592.28,486.84,627,485.21c9.38-.44,19.21-2.06,27.87,1.58s14.68,15.41,8.67,22.63c-5.16,6.2-15.67,5.38-20.92,11.5-4.54,5.27-3,13.9,1.83,18.94s11.88,7.18,18.74,8.3c32.26,5.26,65.52-7.62,97.69-1.81,13.29,2.41,28.06,10.91,28.19,24.41.09,8-5.4,15.28-12.31,19.3s-15.07,5.29-23,5.9c-46,3.47-94.15-12.75-137.33,3.45-6.63,2.48-13.15,5.83-17.81,11.15s-7.19,13-5,19.68c3,9.24,13.51,13.84,23.17,15s19.65-.06,29,2.72,18.06,11.59,16.07,21.1c-1.88,9-11.79,13.54-20.7,15.59-44.55,10.29-94.62-12.18-116.56-52.29" style="fill:#0399ff"/><path d="M155.92,242.1c-1.52-.28-3.22-.71-4-2.06-1.35-2.39,1.62-5.15,4.36-5.29s5.43,1.05,8.16.77c5.34-.57,8.33-6.23,10.84-11s7-9.93,12.16-8.57c3.94,1,6.68,5.66,10.74,5.32,2.6-.22,4.57-2.53,5.55-4.95s1.28-5.08,2.27-7.49a14.16,14.16,0,0,1,24.5-3.08c5,6.72,3.4,16.83,8.73,23.28,2.86,3.47,15,11.24,7.22,15.45-4.82,2.64-16.14,0-21.68.44C201.72,246.94,178.74,246.37,155.92,242.1Z" style="fill:#16c69a"/><path d="M499.19,335.19c-1.76,1.56-11.56.43-11.56,1s3.17,5.78.3,6.37-9.12-3.3-10-2.72,3.07,3.67,0,4.26-10.58-3.1-10.58-3.1a4.91,4.91,0,0,1-1.78,3.15c-1.5,1.07-10.33-2.2-10.81-2.36.1.22,1,2.11-1.74,2.59H453v31.46h-9.08V344.39H444c-2.7-.48-1.65-2.36-1.51-2.59-.48.16-9.31,3.43-10.82,2.36a4.92,4.92,0,0,1-1.77-3.15s-7.52,3.68-10.59,3.1.87-3.69,0-4.26-7.09,3.28-10,2.72.3-5.78.3-6.37-9.81.55-11.56-1,10.16-6.38,21.65-16.26c11.13-9.58,14.79-18.25,15-18.78-.39.11-6,1.9-8.12.36-.69-.52,2.18-4.44,2.62-5.22s-9.73,3.5-11.93,2.91,1.33-5,1.54-5.62-9.27.2-10.16-1.93,11.93-7.36,19.67-16.28S437,259.85,437,259.85a13.28,13.28,0,0,1-6.57,0c-3.07-1,.39-3.89.39-4.86s-8.39,1.75-10.38.21,4.65-3.49,10.84-11.22a111.25,111.25,0,0,0,9.5-13.76,32.79,32.79,0,0,1-4.63,0c-2.2-.2.09-4.06.09-4.06s-9,.8-7.25-.59c3.39-2.62,12-15.21,17.77-23,.67-.9,1.31-1.75,1.89-2.5,5.66,7.32,15.89,22.63,19.67,25.55,1.79,1.39-7.25.59-7.25.59s2.28,3.86.08,4.06a32.67,32.67,0,0,1-4.62,0A111.25,111.25,0,0,0,466,244c6.19,7.73,12.84,9.68,10.83,11.22S466.49,254,466.49,255s3.46,3.9.39,4.86a13.31,13.31,0,0,1-6.58,0s.89,5.62,8.62,14.52,20.55,14.15,19.66,16.28-10.39,1.36-10.16,1.93,3.76,5,1.55,5.62-12.38-3.67-11.94-2.91,3.32,4.7,2.63,5.22c-2.08,1.54-7.73-.25-8.12-.36.21.53,3.86,9.2,15,18.78C489,328.81,501,333.65,499.19,335.19Z" style="fill:#009245"/><path d="M499.19,335.19c-1.76,1.56-11.56.43-11.56,1s3.17,5.78.3,6.37-9.12-3.3-10-2.72,3.07,3.67,0,4.26-10.58-3.1-10.58-3.1a4.91,4.91,0,0,1-1.78,3.15c-1.5,1.07-10.33-2.2-10.81-2.36.1.22,1,2.11-1.74,2.59H453v3.14a20.92,20.92,0,0,1-3.15-11.17c.08-6.81,3.44-13.6,1.77-20.18-.91-3.6-3.28-6.9-3.19-10.6.16-6.51,7.76-11.62,6.43-18-1-5-7.2-7.79-7.8-12.82-.44-3.8,2.43-7.06,3.69-10.66,2.15-6.15-.55-12.78-2.71-18.94s-3.57-13.58.51-18.65c2.16-2.71,5.66-4.33,7.22-7.43s.65-7.32-1.51-10.25c-1.93-2.64-4.7-4.54-7.46-6.33.67-.9,1.31-1.75,1.89-2.5,5.66,7.32,15.89,22.63,19.67,25.55,1.79,1.39-7.25.59-7.25.59s2.28,3.86.08,4.06a32.67,32.67,0,0,1-4.62,0A111.25,111.25,0,0,0,466,244c6.19,7.73,12.84,9.68,10.83,11.22S466.49,254,466.49,255s3.46,3.9.39,4.86a13.31,13.31,0,0,1-6.58,0s.89,5.62,8.62,14.52,20.55,14.15,19.66,16.28-10.39,1.36-10.16,1.93,3.76,5,1.55,5.62-12.38-3.67-11.94-2.91,3.32,4.7,2.63,5.22c-2.08,1.54-7.73-.25-8.12-.36.21.53,3.86,9.2,15,18.78C489,328.81,501,333.65,499.19,335.19Z" style="fill:#006837"/><polygon points="312.99 30.65 307.76 101.52 306.3 121.08 298.27 229.85 294.41 282.01 291.89 316.18 283.04 315.52 285.81 278.13 288.29 244.58 297.65 118.08 298.71 103.67 304.16 30.01 312.99 30.65" style="fill:#b3b3b3"/><path d="M298.27,229.85,294.41,282a29.7,29.7,0,0,1-8.6-3.88l2.48-33.55A47.77,47.77,0,0,0,298.27,229.85Z" style="fill:#577483"/><path d="M615.33,560.24s-8.79,170.52-12.73,237.94c-.62,10.76-1.14,18.9-1.45,23.3-.68,9.29-7.81,25.73-17.95,44.77-24.66,46.32-67.26,108.15-79,120.72-16.55,17.73-28.37,100.49-27.19,111.12s-52,54.39-52,54.39C392.85,1140,316.09,1025.62,289.8,989c-3.68-5.11-6.37-8.71-7.82-10.3-11.83-13-33.11-68.57-43.75-76.85-6.58-5.11-30.76-12-50.78-19.1-12.38-4.34-23.18-8.76-27.24-12.82C149.57,859.3,96.38,762.38,96.38,755.29S157.85,468,157.85,468s34.28-15.38,49.65-36.66,31.92-150.13,31.92-150.13L282,261.16l1,0h.42c6.47-.22,33.36-1,49.4.05C347,262.08,519.58,361.65,529,371.1S615.33,560.24,615.33,560.24Z" style="fill:#62a38b"/><path d="M602.6,798.18c-.62,10.76-1.14,18.9-1.45,23.3-.68,9.29-7.81,25.73-17.95,44.77-24.66,46.32-67.26,108.15-79,120.72-16.55,17.73-28.37,100.49-27.19,111.12s-52,54.39-52,54.39C392.85,1140,316.09,1025.62,289.8,989c-3.68-5.11-6.37-8.71-7.82-10.3-11.83-13-33.11-68.57-43.75-76.85-6.58-5.11-30.76-12-50.78-19.1,1.79-2.94,3.6-5.87,5.42-8.76,28.73-45.37,62.44-89.53,74.42-141.87,1.09,10.64,15.64,15.16,25.25,10.46s15.09-14.84,20-24.34l36.23-70.61c16.34,10.34,29,25.76,45.6,35.78s40.29,13,53.6-1c14.47-15.25,10.57-43.87,28.46-54.9a251.63,251.63,0,0,1,45.68,96.8c2.41,10.48,5.07,22.45,14.49,27.64,7.75,4.28,17.76,2.11,25-3s12.27-12.7,17.13-20.09A471,471,0,0,0,602.6,798.18Z" style="fill:#477f68"/><path d="M204.41,229.76a22.16,22.16,0,0,0-5.76-7.76c-1.25-1.07-2.74-2.24-2.79-3.88a3.41,3.41,0,0,1,2.47-3.12,7.41,7.41,0,0,1,4.22.12A49.38,49.38,0,0,1,199.81,200c-.23-5,1.21-10.27,4.87-13.67s9.78-4.31,13.71-1.23c2.59,2,3.85,5.3,4.57,8.51,2.95,13.22-1.48,26.87-6.37,39.5" style="fill:#f4785c"/><path d="M47.24,339.3a21.89,21.89,0,0,1-5.45-8c-.61-1.53-1.22-3.32-2.76-3.9a3.43,3.43,0,0,0-3.76,1.32,7.41,7.41,0,0,0-1.26,4,49.2,49.2,0,0,0-13.4-7.52C16,323.41,10.5,323,6.09,325.39S-1.16,333.23.46,338c1.07,3.11,3.76,5.38,6.56,7.1,11.53,7.1,25.89,7.36,39.42,6.85" style="fill:#f4785c"/><path d="M173.27,320.6s27.12-44.78,27.12-93.54c0,0,11.08-8.86,20,2.66s16.32,98-23.54,122.35" style="fill:#0d0e1f"/><path d="M142.82,341.27S91.4,351.1,45.7,334.11c0,0-12.18,7.3-4.46,19.63s86.15,49.43,122.88,20.56" style="fill:#0d0e1f"/><path d="M172.55,317.83s60.37,21.94,73.37,51.49-35.44,92.8-59.68,99.89S136,349.42,133,321" style="fill:#0d0e1f"/><path d="M544.5,384c-8.12-9.17-10.62-17.44-10.62-17.44s4.24,1.82,5.76.34c.49-.48-1.55-4.12-1.86-4.84s6.87,3.24,8.43,2.7-.93-4.68-1.09-5.22,6.56.18,7.18-1.8-8.43-6.83-13.89-15.11-6.09-13.49-6.09-13.49a7.25,7.25,0,0,0,4.65,0c2.16-.9-.28-3.62-.28-4.52s5.93,1.64,7.33.2-3.28-3.24-7.65-10.43a109.35,109.35,0,0,1-6.72-12.77,17.19,17.19,0,0,0,3.26,0c1.56-.18-.06-3.77-.06-3.77s6.4.74,5.13-.55c-2.66-2.71-9.89-16.93-13.89-23.73-4,6.8-11.24,21-13.9,23.73-1.27,1.29,5.13.55,5.13.55s-1.62,3.59-.06,3.77a17.19,17.19,0,0,0,3.26,0,109.35,109.35,0,0,1-6.72,12.77c-4.37,7.19-9.06,9-7.65,10.43s7.34-1.1,7.34-.2-2.45,3.62-.29,4.52a7.25,7.25,0,0,0,4.65,0s-.62,5.22-6.09,13.49-14.52,13.13-13.89,15.11,7.34,1.26,7.18,1.8-2.65,4.68-1.09,5.22,8.74-3.42,8.43-2.7-2.35,4.36-1.86,4.84c1.52,1.48,5.76-.34,5.76-.34s-2.5,8.27-10.61,17.44-16.55,13.68-15.31,15.12,8.18.38,8.18.92-2.24,5.37-.21,5.91,6.43-3.06,7-2.52-2.17,3.42,0,4,7.48-2.88,7.48-2.88a5.12,5.12,0,0,0,1.25,2.94c1.09,1,7.65-2.22,7.65-2.22s-1,1.95,1.06,2.42h-.1v29.23h6.41V407.6h.06a1.7,1.7,0,0,0,1.22-2.42s6.56,3.24,7.65,2.22a5.19,5.19,0,0,0,1.25-2.94s5.31,3.42,7.48,2.88-.61-3.42,0-4,5,3.06,7,2.52-.21-5.37-.21-5.91,6.93.51,8.18-.92S552.61,393.13,544.5,384Z" style="fill:#0399ff"/><path d="M615.33,560.24s-281.93-95.17-287.25-104-46.1-195-46.1-195l1,0h.42c6.47-.22,33.36-1,49.4.05C347,262.08,519.58,361.65,529,371.1S615.33,560.24,615.33,560.24Z" style="fill:#6fc6aa"/><path d="M448.48,710.2c-1.78,1.54-11.57.4-11.57,1s3.18,5.78.31,6.36-9.12-3.29-10-2.71,3.09,3.67,0,4.26S416.65,716,416.65,716a4.93,4.93,0,0,1-1.76,3.18c-1.52,1.06-10.34-2.22-10.81-2.38.1.22,1,2.13-1.74,2.59h-.09v31.47h-9.08V719.38h.14a4.46,4.46,0,0,1-.46-.11,1.55,1.55,0,0,1-1.06-2.48c-.48.16-9.29,3.44-10.8,2.38a4.86,4.86,0,0,1-1.77-3.18s-7.52,3.69-10.59,3.11.87-3.67,0-4.26-7.09,3.28-10,2.71.3-5.78.3-6.36-9.81.55-11.56-1,10.16-6.4,21.65-16.28c11.13-9.58,14.78-18.25,15-18.78-.38.11-6.07,1.9-8.12.36-.71-.52,2.18-4.44,2.62-5.22s-9.73,3.5-11.93,2.91,1.31-5,1.54-5.62-9.27.19-10.16-1.93,11.93-7.36,19.66-16.26,8.62-14.54,8.62-14.54a13.4,13.4,0,0,1-6.6,0c-3.05-1,.41-3.89.41-4.86s-8.38,1.77-10.39.21,4.65-3.47,10.84-11.22a111.65,111.65,0,0,0,9.52-13.76,32.79,32.79,0,0,1-4.63,0c-2.2-.2.09-4.05.09-4.05s-9,.78-7.25-.6c3.76-2.92,14-18.23,19.66-25.55.9,1.15,1.92,2.52,3,4,5.74,7.85,13.49,19.08,16.67,21.54,1.79,1.38-7.27.6-7.27.6s2.3,3.85.08,4.05a32.6,32.6,0,0,1-4.61,0A109.4,109.4,0,0,0,415.32,619c6.19,7.75,12.82,9.68,10.83,11.22S415.78,629,415.78,630s3.44,3.9.39,4.86a13.31,13.31,0,0,1-6.58,0s.89,5.62,8.62,14.54,20.55,14.13,19.66,16.26-10.39,1.36-10.16,1.93,3.76,5,1.54,5.62-12.37-3.67-11.93-2.91,3.32,4.7,2.63,5.22c-2.08,1.54-7.77-.25-8.14-.36.21.53,3.88,9.2,15,18.78C438.32,703.8,450.25,708.64,448.48,710.2Z" style="fill:#006837"/><path d="M535.59,721.62c-1.24,1.09-8.1.3-8.1.7s2.21,4,.21,4.46-6.38-2.31-7-1.9,2.15,2.59,0,3-7.41-2.18-7.41-2.18a3.42,3.42,0,0,1-1.25,2.22c-1.08.78-7.59-1.67-7.59-1.67s.8,1.48-1.2,1.83h-.07v49.52h-6.35V728.07h.09c-2-.35-1.05-1.83-1.05-1.83s-6.5,2.45-7.59,1.67a3.44,3.44,0,0,1-1.24-2.22s-5.26,2.59-7.41,2.18.6-2.58,0-3-5,2.3-7,1.9.22-4,.22-4.46-6.88.39-8.12-.7,7.12-4.47,15.17-11.41c7.82-6.7,10.38-12.76,10.52-13.14-.36.11-4.26,1.3-5.69.24-.48-.36,1.52-3.11,1.84-3.66s-6.81,2.45-8.37,2,.94-3.53,1.08-3.93-6.49.14-7.11-1.37,8.35-5.14,13.78-11.4S492,668.81,492,668.81a9.54,9.54,0,0,1-4.63,0c-2.13-.67.28-2.73.28-3.4s-5.88,1.24-7.27.14,3.25-2.43,7.59-7.87a76,76,0,0,0,6.67-9.63,25.57,25.57,0,0,1-3.25,0c-1.54-.15.08-2.84.08-2.84s-6.35.55-5.09-.43c2.48-1.91,8.95-11.5,13-16.91.27-.36.52-.69.76-1,4,5.14,11.16,15.87,13.8,17.9,1.24,1-5.09.43-5.09.43s1.6,2.69.05,2.84a25.48,25.48,0,0,1-3.24,0,78.67,78.67,0,0,0,6.67,9.63c4.34,5.44,9,6.79,7.6,7.87s-7.29-.82-7.29-.14,2.43,2.73.29,3.4a9.44,9.44,0,0,1-4.61,0s.62,3.94,6,10.18,14.41,9.91,13.79,11.4-7.29,1-7.13,1.37,2.63,3.52,1.09,3.93-8.68-2.57-8.37-2,2.34,3.3,1.84,3.66c-1.42,1.06-5.34-.13-5.69-.24.14.38,2.71,6.44,10.51,13.14C528.46,717.15,536.83,720.53,535.59,721.62Z" style="fill:#006837"/><path d="M247.47,699.49c3.76,51.76,8.49,117,8.49,122,0,8.28-17.73,80.38-17.73,80.38-10.64-8.27-67.38-21.28-78-31.92S96.38,762.38,96.38,755.29c0-4.13,20.92-101.2,38.35-181.36C147.18,516.67,157.85,468,157.85,468s34.28-15.38,49.65-36.66,31.92-150.13,31.92-150.13L282,261.16l46.1,195S243,632.34,243,635.88C243,637.28,245,665.48,247.47,699.49Z" style="fill:#8cd1bb"/><path d="M150.27,326.77S192,365.1,195.53,375.86s-5.32-38-35.46-61.06" style="fill:#fff"/><path d="M167.85,282c4.63,5.72,6,6.18,7.59,13.82,1.83,9.07.28,18.41-5.64,25.71a39.85,39.85,0,0,1-14.06,11.53,23.61,23.61,0,0,1-22.7-1.32l-2.19-1.37c-3.23-2-5.08-4.7-7.39-7.71l-17.94-21.76,14.21-20.85,26.82-25.15c3.71,3.35,2.94,9.84,5.54,12.2C155.19,269.93,165.29,278.85,167.85,282Z" style="fill:#f4785c"/><path d="M116.79,248.53C110.64,253,105,258,99.14,262.79,91.46,269,85.85,279,87.84,289.28c1.48,7.67,7.08,14.93,11.64,17.27s10.21,6.2,15.38.61c4.54-4.92,7.73-14.64,11.4-18.94,9.43-11.08,17.55-15.32,20.55-18.67A14.39,14.39,0,0,0,150,257.12c-2.54-14.75-21.64-16.78-31.87-9.55Z" style="fill:#692b23"/><path d="M256,821.48c0,8.28-17.73,80.38-17.73,80.38-10.64-8.27-67.38-21.28-78-31.92S96.38,762.38,96.38,755.29c0-4.13,20.92-101.2,38.35-181.36,6.51,12.36,10.07,26.54,11.19,40.52,2,24.54-2.55,49.06-5.8,73.48-.69,5.24-1.29,10.78.71,15.69s7.56,8.78,12.56,7c2.19-.75,4-2.43,6.15-3.18,4.47-1.54,9.54,1.35,11.84,5.46s2.47,9.1,2.11,13.82c-1,12.91-5.25,25.32-7.87,38s-3.51,26.41,1.95,38.15c5,10.67,15.52,18.9,27.25,19.66s23.89-6.86,27.08-18.18c4.36-15.48-7.5-33.06-.39-47.5,3.19-6.47,9.72-10.89,12.68-17.48,4.33-9.61.12-21.53,4.72-31a20.88,20.88,0,0,1,8.56-8.92C251.23,751.25,256,816.48,256,821.48Z" style="fill:#16c69a"/><path d="M503.69,602.93c-1.91,0-3.95,0-5.57-1.06s-2.53-3.42-1.33-4.91,3.1-1.27,4.78-1.64c3.58-.78,6.08-3.9,9.06-6s7.81-3,9.81.1c1.51-4.3,3.12-8.75,6.33-12s8.51-4.87,12.42-2.54c5.64,3.36,5.36,12.45,10.9,16,2.44,1.55,5.48,1.64,8.31,2.21s5.89,2,6.69,4.79c3.53,12.35-16.38,6.06-21,5.35C531.2,601.21,516.76,602.94,503.69,602.93Z" style="fill:#fff"/><path d="M273.89,698.4c3.49-.42,7.27-1,9.45-4a4.7,4.7,0,0,0-.46-6.39c-2.21-1.82-5.21-.44-7.88-.87-4.22-.68-6.25-5.39-8-9.29s-5.38-8.17-9.46-6.87c-3.78,1.22-4.81,6.44-8.35,8.26-4.37,2.24-9.33-2-11.69-6.28-2.64-4.81-4.71-10.81-10.57-11.83a10.75,10.75,0,0,0-9.56,3.64c-5.48,5.91-5.72,14-9.11,20.86-3.72,7.47-12,8.48-19.43,12.82a3.43,3.43,0,0,0,1.89,6.35c5-.09,10.27.29,14.19-.08,5.27-.49,10.5-1.3,15.78-1.72C238.44,701.57,256.18,700.54,273.89,698.4Z" style="fill:#fff"/><path d="M304.58,441.61c-4.2-.11-8.75-.37-11.67-3.72-1.94-2.21-2.26-5.58-.18-7.65,2.43-2.41,6.15-1.1,9.27-1.9,4.95-1.28,6.84-7.12,8.51-11.94S316,406.08,321,407.18c4.64,1,6.44,7.11,10.85,8.88,5.44,2.18,10.88-3.38,13.21-8.76,2.6-6,4.39-13.38,11.24-15.25,4.17-1.14,8.55.38,11.78,3.27,7.16,6.41,8.36,16.06,13.15,23.78,5.25,8.47,15.23,8.75,24.53,13.08,3.78,1.77,2.62,7.44-1.54,7.76-5.95.45-12.18,1.49-16.88,1.49-6.33,0-12.64-.38-19-.29C347.08,441.43,325.88,442.19,304.58,441.61Z" style="fill:#fff"/><path d="M375.6,208.08c-4.2-.11-8.75-.37-11.68-3.72-1.93-2.21-2.25-5.58-.17-7.65,2.42-2.41,6.15-1.1,9.27-1.9,5-1.28,6.83-7.12,8.5-11.94s5.5-10.32,10.49-9.22c4.63,1,6.43,7.11,10.84,8.88,5.45,2.18,10.89-3.38,13.21-8.76,2.6-6,4.39-13.38,11.25-15.25,4.17-1.14,8.55.38,11.77,3.27,7.17,6.41,8.36,16.06,13.15,23.78,5.26,8.47,15.24,8.75,24.53,13.08,3.79,1.77,2.63,7.44-1.53,7.76-6,.45-12.18,1.5-16.89,1.49-6.32,0-12.63-.38-19-.29C418.1,207.9,396.9,208.66,375.6,208.08Z" style="fill:#38d1a0"/><path d="M455.78,371.8c-3.69-1.39-8.67-2-10.84,1.31-1.11,1.68-1.05,3.85-.78,5.84,1.68,12.49,10.46,23.51,21.78,29.05a20.27,20.27,0,0,0,8.83,2.42c11.41,0,11.54-11.54,6.47-18.43C474.68,383.06,466.22,375.75,455.78,371.8Z" style="fill:#62a38b"/><path d="M519.67,432a8.84,8.84,0,0,0-.67,4,32.37,32.37,0,0,0,5,17,3.48,3.48,0,0,0,1.86,1.71c1.21.32,2.4-.65,3-1.73,2.86-5-1.16-11.37-1.65-16.51C527,433,522.69,425.78,519.67,432Z" style="fill:#62a38b"/><path d="M184.38,528.86c-.37,1.81-.52,4,.92,5.19s3.84.47,5.5-.61c7-4.56,10.39-13,13.14-20.87,3-8.75-3.23-13.31-9.41-6.06C189.3,512.63,186,521.05,184.38,528.86Z" style="fill:#62a38b"/><path d="M228.57,492.5a3.72,3.72,0,0,0-.47,2.66,2.45,2.45,0,0,0,3.05,1.25,5.85,5.85,0,0,0,2.76-2.31c2.81-3.85,4.18-8.54,5.5-13.12a6,6,0,0,0,.36-2.37c-.49-4.28-4.65-.13-5.6,1.48C231.91,483.91,230.41,488.46,228.57,492.5Z" style="fill:#62a38b"/><path d="M437.78,538.8c-.83,3.7-5.77,5.75-11,4.57s-8.84-5.14-8-8.84,5.76-5.75,11-4.57S438.61,535.1,437.78,538.8Z" style="fill:#477f68"/><path d="M307.76,101.52l-1.46,19.56a3.8,3.8,0,0,1-.62.11c-2.07.16-3.95-1.09-5.76-2.1a11.23,11.23,0,0,0-2.27-1l1.06-14.41a3.08,3.08,0,0,1,.27-.25c2.22-1.93,5.34-3.42,8-2.29A4.28,4.28,0,0,1,307.76,101.52Z" style="fill:#577483"/><path d="M418.81,85.28C411.38,96.43,400.33,110,389.34,111c-8.24.8-16-4.73-23.81-8.28-22.26-10.09-50-4.43-68.09,15.93-.36-2.26-.64-4.56-.89-6.88-2.3-22.63.76-48,6.14-69.26,11.61-11.44,28.08-7.58,40.58,2S366,68.36,378.15,78.61c1,.8,1.93,1.58,3,2.33C392.83,89.66,407.23,93.88,418.81,85.28Z" style="fill:#ed174c"/><polygon points="327.65 51.48 331.86 63.14 343.85 66.28 334.06 73.89 334.78 86.26 324.52 79.3 312.98 83.81 316.43 71.9 308.57 62.31 320.96 61.91 327.65 51.48" style="fill:#ff0"/><polygon points="349.84 121.73 352.27 128.46 359.19 130.28 353.54 134.66 353.95 141.81 348.03 137.79 341.37 140.39 343.36 133.52 338.82 127.98 345.98 127.75 349.84 121.73" style="fill:#0399ff"/><polygon points="266.19 66.82 272.25 73.94 281.54 72.98 276.64 80.94 280.42 89.48 271.34 87.28 264.39 93.52 263.67 84.2 255.59 79.51 264.23 75.95 266.19 66.82" style="fill:#16c69a"/><path d="M418.81,85.28C411.38,96.43,400.33,110,389.34,111c-8.24.8-16-4.73-23.81-8.28-22.26-10.09-50-4.43-68.09,15.93-.36-2.26-.64-4.56-.89-6.88a68.91,68.91,0,0,1,47.34-21.12,79.17,79.17,0,0,1,17,2.66,56.18,56.18,0,0,0,8.28,1.93,12.65,12.65,0,0,0,8.21-1.6,10.69,10.69,0,0,0,4.34-10.14,13.75,13.75,0,0,0-.58-2.6C392.83,89.66,407.23,93.88,418.81,85.28Z" style="fill:#b21139"/><path d="M448.48,710.2c-1.78,1.54-11.57.4-11.57,1s3.18,5.78.31,6.36-9.12-3.29-10-2.71,3.09,3.67,0,4.26S416.65,716,416.65,716a4.93,4.93,0,0,1-1.76,3.18c-1.52,1.06-10.34-2.22-10.81-2.38.1.22,1,2.13-1.74,2.59h-.09V732a16.88,16.88,0,0,1-1.67-.92,17.16,17.16,0,0,1-7.41-10.18,13.3,13.3,0,0,1-.32-1.67,13,13,0,0,1,.73-6.4c1.58-4,5-7,7.89-10.19s5.37-7.47,4.36-11.67c-1.08-4.5-5.67-7.15-8.16-11a13.27,13.27,0,0,1,.18-14.29c1.35-2,3.25-3.6,4.74-5.49s2.64-4.37,2.09-6.72c-1.07-4.6-7.55-6.09-9-10.59-.91-2.86.57-5.89,2.32-8.32s3.88-4.71,4.56-7.64c1.74-7.54-6.86-13.56-8.05-21.21-.87-5.69,2.48-11,4.75-16.34A19.6,19.6,0,0,0,400.94,579c5.74,7.85,13.49,19.08,16.67,21.54,1.79,1.38-7.27.6-7.27.6s2.3,3.85.08,4.05a32.6,32.6,0,0,1-4.61,0A109.4,109.4,0,0,0,415.32,619c6.19,7.75,12.82,9.68,10.83,11.22S415.78,629,415.78,630s3.44,3.9.39,4.86a13.31,13.31,0,0,1-6.58,0s.89,5.62,8.62,14.54,20.55,14.13,19.66,16.26-10.39,1.36-10.16,1.93,3.76,5,1.54,5.62-12.37-3.67-11.93-2.91,3.32,4.7,2.63,5.22c-2.08,1.54-7.77-.25-8.14-.36.21.53,3.88,9.2,15,18.78C438.32,703.8,450.25,708.64,448.48,710.2Z" style="fill:#004e29"/><path d="M535.59,721.62c-1.24,1.09-8.1.3-8.1.7s2.21,4,.21,4.46-6.38-2.31-7-1.9,2.15,2.59,0,3-7.41-2.18-7.41-2.18a3.42,3.42,0,0,1-1.25,2.22c-1.08.78-7.59-1.67-7.59-1.67s.8,1.48-1.2,1.83h-.07v48.07a21.32,21.32,0,0,1-6.35-1.54V731.79l3.09-5.9c1.15-2.2,2.53-4.59,4.91-5.27,1.34-.39,2.82-.12,4.22-.28s2.94-1.08,3-2.48-1-2.22-2-3a29.3,29.3,0,0,1-8.65-13.37c-1-3.15-1.08-7.25,1.68-9.06,1.64-1,3.83-.95,5.43-2,2.75-1.85,2.39-6.14.64-8.92s-4.52-4.86-6.22-7.7-1.85-7.16,1-8.85a4.79,4.79,0,0,0,1.63-1.06c.69-.9.19-2.27-.66-3a18.14,18.14,0,0,0-2.92-1.71c-3.44-2.09-4.47-6.68-4-10.67s2.14-7.73,2.74-11.7a13.23,13.23,0,0,0-1.38-8.85c.27-.36.52-.69.76-1,4,5.14,11.16,15.87,13.8,17.9,1.24,1-5.09.43-5.09.43s1.6,2.69.05,2.84a25.48,25.48,0,0,1-3.24,0,78.67,78.67,0,0,0,6.67,9.63c4.34,5.44,9,6.79,7.6,7.87s-7.29-.82-7.29-.14,2.43,2.73.29,3.4a9.44,9.44,0,0,1-4.61,0s.62,3.94,6,10.18,14.41,9.91,13.79,11.4-7.29,1-7.13,1.37,2.63,3.52,1.09,3.93-8.68-2.57-8.37-2,2.34,3.3,1.84,3.66c-1.42,1.06-5.34-.13-5.69-.24.14.38,2.71,6.44,10.51,13.14C528.46,717.15,536.83,720.53,535.59,721.62Z" style="fill:#004e29"/><path d="M511.45,782.47S510,761,506.58,759.42s-10.64-9.31-13.45-8.57-7.39,4.43-7.39,4.43Z" style="fill:#6fc6aa"/><path d="M583.2,866.25c-6.67,12.5-14.61,26.12-22.93,39.6-22.46,36.49-47.5,71.93-56.06,81.12-16.55,17.73-28.37,100.49-27.19,111.12s-52,54.39-52,54.39c-27.38-10.61-87.07-95.06-120.44-142.55-5.85-8.3-10.87-15.48-14.78-20.92l66.36-222.62a30.56,30.56,0,0,1,20.56-20.55l65.9-19.67a30.55,30.55,0,0,1,32.22,9.75Z" style="fill:#8cd1bb"/><path d="M504.21,985.92c-16.55,17.74-28.37,100.49-27.19,111.13s-52,54.38-52,54.38c-27.38-10.6-87.07-95.06-120.44-142.54a42.84,42.84,0,0,1,4-2.11c9.2-4.21,20.32-4.88,29.34-.3,12,6.09,17.88,19.52,24.31,31.33s16.35,24.08,29.79,24.2c13.05.12,23.39-11.74,27.49-24.13,5.1-15.5,3.38-32.29,3.95-48.6s4.33-34,17-44.28c5.93-4.77,13.29-7.48,19.08-12.38,12-10.1,14.93-27.46,13.57-43-1.08-12.54-4.43-25.25-1.56-37.5s15.21-23.62,27.11-19.58c9.08,3.1,13.35,13.12,17.59,21.72a132.75,132.75,0,0,0,44,50.57C537.81,941.29,512.77,976.74,504.21,985.92Z" style="fill:#16c69a"/><path d="M392.13,43.92c5.12-3.83,11.28-6.7,17-6.05s10.44,5.78,9.18,11.81c-1,4.78-5.39,8.76-10,10.61s-9.37,2-14,2.05c-4.27.08-13.62.68-13.93-5.19C380.11,52.17,388.53,46.6,392.13,43.92Z" style="fill:#16c69a"/><path d="M327.52,10.12a12.4,12.4,0,0,1-.62-4.9A5.77,5.77,0,0,1,329.24,1a7.05,7.05,0,0,1,3.63-1,4.2,4.2,0,0,1,3.05.77A4.65,4.65,0,0,1,337,4.16a45.45,45.45,0,0,1-.39,7.82c-.25,1.78-.34,5.64-1.9,6.81C331.1,21.53,328.14,12.22,327.52,10.12Z" style="fill:#16c69a"/><path d="M350.83,32.25a17.47,17.47,0,0,1,6.05-7.17c2.7-1.65,6.32-2.07,9-.41,3.08,1.9,4.19,6.07,3.35,9.58s-3.27,6.45-6,8.84-5.77,4.39-8.41,6.85c-1.5,1.4-4.78,6-7,6s-2.3-3.29-2.19-4.94A49.37,49.37,0,0,1,350.83,32.25Z" style="fill:#0399ff"/></g></g></svg>